<svg width="128" height="128" viewBox="0 0 128 128" fill="none" xmlns="http://www.w3.org/2000/svg">
  <defs>
    <linearGradient id="bg" x1="18" y1="16" x2="116" y2="122" gradientUnits="userSpaceOnUse">
      <stop stop-color="#243A73"/>
      <stop offset="1" stop-color="#17264A"/>
    </linearGradient>
    <linearGradient id="shieldOuter" x1="34" y1="20" x2="92" y2="108" gradientUnits="userSpaceOnUse">
      <stop stop-color="#9AE683"/>
      <stop offset="0.55" stop-color="#6CCB67"/>
      <stop offset="1" stop-color="#4E9D60"/>
    </linearGradient>
    <linearGradient id="shieldMid" x1="42" y1="28" x2="86" y2="100" gradientUnits="userSpaceOnUse">
      <stop stop-color="#85D776"/>
      <stop offset="0.55" stop-color="#67BE67"/>
      <stop offset="1" stop-color="#4D905D"/>
    </linearGradient>
    <linearGradient id="shieldInner" x1="46" y1="38" x2="82" y2="88" gradientUnits="userSpaceOnUse">
      <stop stop-color="#CEF4C2"/>
      <stop offset="1" stop-color="#A8E08E"/>
    </linearGradient>
    <filter id="shadow" x="0" y="2" width="128" height="126" filterUnits="userSpaceOnUse" color-interpolation-filters="sRGB">
      <feDropShadow dx="4" dy="10" stdDeviation="7" flood-color="#07101F" flood-opacity="0.45"/>
    </filter>
  </defs>

  <g filter="url(#shadow)">
    <path d="M20 14L92 10L116 30L110 114L30 118L8 94L20 14Z" fill="#2956AB" fill-opacity="0.82"/>
    <path d="M24 16L91 14L114 29L108 111L31 116L10 92L24 16Z" fill="url(#bg)" fill-opacity="0.9"/>
    <path d="M24 16L91 14L114 29L108 64L38 64L24 50V16Z" fill="#5B7BCB" fill-opacity="0.14"/>
    <path d="M64 9L99.5 24.5V58C99.5 74 92.5 88 81.5 101C76.5 106.5 70.5 111 64 116C57.5 111 51.5 106.5 46.5 101C35.5 88 28.5 74 28.5 58V24.5L64 9Z" fill="url(#shieldOuter)"/>
    <path d="M64 18L92 29.5V58C92 71 86.5 82.5 77 93.5C72 98.5 66 101.5 64 102C62 101.5 56 98.5 51 93.5C41.5 82.5 36 71 36 58V29.5L64 18Z" fill="url(#shieldMid)"/>
    <path d="M64 26.5L85 35.5V60C85 70 80.5 78.5 74 86C70 90 65.5 92.5 64 93.5C62.5 92.5 58 90 54 86C47.5 78.5 43 70 43 60V35.5L64 26.5Z" fill="url(#shieldInner)"/>
    <path d="M53 63L63 73L80.5 52.5" stroke="#F7FAF4" stroke-width="9" stroke-linecap="round" stroke-linejoin="round"/>
  </g>
</svg>
