<svg width="128" height="128" viewBox="0 0 128 128" fill="none" xmlns="http://www.w3.org/2000/svg">
  <defs>
    <linearGradient id="bg" x1="16" y1="12" x2="112" y2="116" gradientUnits="userSpaceOnUse">
      <stop stop-color="#172235"/>
      <stop offset="1" stop-color="#0B111D"/>
    </linearGradient>
    <linearGradient id="shieldOuter" x1="28" y1="18" x2="92" y2="104" gradientUnits="userSpaceOnUse">
      <stop stop-color="#A8E58C"/>
      <stop offset="0.52" stop-color="#5AA66A"/>
      <stop offset="1" stop-color="#315D58"/>
    </linearGradient>
    <linearGradient id="shieldInner" x1="38" y1="28" x2="84" y2="92" gradientUnits="userSpaceOnUse">
      <stop stop-color="#7CCB72"/>
      <stop offset="0.55" stop-color="#589864"/>
      <stop offset="1" stop-color="#406A5E"/>
    </linearGradient>
    <filter id="shadow" x="-12" y="-12" width="152" height="152" filterUnits="userSpaceOnUse" color-interpolation-filters="sRGB">
      <feDropShadow dx="0" dy="10" stdDeviation="8" flood-color="#02060D" flood-opacity="0.55"/>
    </filter>
  </defs>

  <g filter="url(#shadow)" transform="translate(64 64) scale(1.1) translate(-64 -64)">
    <path d="M22 16L100 10L116 28L108 102L30 110L12 92L22 16Z" fill="url(#bg)"/>
    <path d="M64 16L98 28V54C98 75 84 94 64 104C44 94 30 75 30 54V28L64 16Z" fill="url(#shieldOuter)"/>
    <path d="M64 25L89 34V54C89 69 79 82 64 91C49 82 39 69 39 54V34L64 25Z" fill="url(#shieldInner)"/>
    <path d="M48 58L59 69L83 43" stroke="#F3F7EF" stroke-width="10" stroke-linecap="round" stroke-linejoin="round"/>
  </g>
</svg>
